HIERARCHY
ROOT RootJoint
{
    OFFSET   0.000000   0.000000   0.000000
    CHANNELS 6 Xposition Yposition Zposition Xrotation Yrotation Zrotation
    JOINT lHip
    {
        OFFSET   0.100000  -0.051395   0.000000
        CHANNELS 3 Xrotation Yrotation Zrotation
        JOINT lKnee
        {
            OFFSET   0.000000  -0.410000   0.000000
            CHANNELS 3 Xrotation Yrotation Zrotation
            JOINT lAnkle
            {
                OFFSET   0.000000  -0.390000   0.000000
                CHANNELS 3 Xrotation Yrotation Zrotation
                JOINT lToeJoint
                {
                    OFFSET   0.000000  -0.050000   0.130000
                    CHANNELS 3 Xrotation Yrotation Zrotation
                    End Site
                    {
                        OFFSET   0.010000   0.002000   0.060000
                    }
                }
            }
        }
    }
    JOINT rHip
    {
        OFFSET  -0.100000  -0.051395   0.000000
        CHANNELS 3 Xrotation Yrotation Zrotation
        JOINT rKnee
        {
            OFFSET   0.000000  -0.410000   0.000000
            CHANNELS 3 Xrotation Yrotation Zrotation
            JOINT rAnkle
            {
                OFFSET   0.000000  -0.390000   0.000000
                CHANNELS 3 Xrotation Yrotation Zrotation
                JOINT rToeJoint
                {
                    OFFSET   0.000000  -0.050000   0.130000
                    CHANNELS 3 Xrotation Yrotation Zrotation
                    End Site
                    {
                        OFFSET  -0.010000   0.002000   0.060000
                    }
                }
            }
        }
    }
    JOINT pelvis_lowerback
    {
        OFFSET   0.000000   0.093605   0.000000
        CHANNELS 3 Xrotation Yrotation Zrotation
        JOINT lowerback_torso
        {
            OFFSET   0.000000   0.100000   0.000000
            CHANNELS 3 Xrotation Yrotation Zrotation
            JOINT torso_head
            {
                OFFSET   0.000000   0.282350   0.000000
                CHANNELS 3 Xrotation Yrotation Zrotation
                End Site
                {
                    OFFSET   0.000000   0.192650   0.000000
                }
            }
            JOINT lTorso_Clavicle
            {
                OFFSET   0.001000   0.157500   0.000000
                CHANNELS 3 Xrotation Yrotation Zrotation
                JOINT lShoulder
                {
                    OFFSET   0.117647   0.000000   0.000000
                    CHANNELS 3 Xrotation Yrotation Zrotation
                    JOINT lElbow
                    {
                        OFFSET   0.245000   0.000000   0.000000
                        CHANNELS 3 Xrotation Yrotation Zrotation
                        JOINT lWrist
                        {
                            OFFSET   0.240000   0.000000   0.000000
                            CHANNELS 3 Xrotation Yrotation Zrotation
                            End Site
                            {
                                OFFSET   0.116353  -0.002500   0.000000
                            }
                        }
                    }
                }
            }
            JOINT rTorso_Clavicle
            {
                OFFSET  -0.001000   0.157500   0.000000
                CHANNELS 3 Xrotation Yrotation Zrotation
                JOINT rShoulder
                {
                    OFFSET  -0.117647   0.000000   0.000000
                    CHANNELS 3 Xrotation Yrotation Zrotation
                    JOINT rElbow
                    {
                        OFFSET  -0.245000   0.000000   0.000000
                        CHANNELS 3 Xrotation Yrotation Zrotation
                        JOINT rWrist
                        {
                            OFFSET  -0.240000   0.000000   0.000000
                            CHANNELS 3 Xrotation Yrotation Zrotation
                            End Site
                            {
                                OFFSET  -0.116353  -0.002500   0.000000
                            }
                        }
                    }
                }
            }
        }
    }
}
MOTION
Frames: 10
Frame Time:   0.010000
 -0.004718   0.903646  -0.264434   3.121300   5.289300   6.597300  -7.823500  21.663600  -7.293900  21.423300   0.000000   0.000000 -11.820700  23.822000  -6.150100  15.646600   0.000000   0.000000  -9.741700 -19.591800 -19.418300  30.123700   0.000000   0.000000 -15.687600 -15.045000  33.866400  15.624800   0.000000   0.000000  -8.080500   3.360100  -9.378400   8.143600  -5.651500   7.216700 -35.409425   3.012009  -2.321349   4.690900  23.364300  12.200200 -75.244100 -19.380700 -30.248400  -0.001400 -81.395400  -0.001200 -18.599900 -10.751200   7.738800  12.608800 -22.487100  -4.916500 -61.654300 -20.918200  35.323800 -179.993100  88.251800 179.992900 -40.494800   8.472600 -43.720900
 -0.002468   0.904625  -0.261838   3.127493   4.770518   6.508958  -7.189983  21.441690  -7.559912  20.560800   0.000000   0.000000 -11.891228  24.418505  -5.360649  15.901380   0.000000   0.000000 -10.086165 -19.307347 -19.416499  30.718980   0.000000   0.000000 -15.942588 -17.130614  32.431667  16.173040   0.000000   0.000000  -8.207399   3.474738  -9.206524   7.948845  -5.575583   7.378411 -35.024767   3.701825  -2.145968   4.745358  23.662341  12.222172 -75.628414 -18.923244 -31.021141  -0.001767 -83.153540  -0.001567 -26.702876 -12.595028   2.714491  12.542224 -22.178439  -4.911517 -62.436493 -20.364103  37.037059 -179.997481  85.264660 179.997281 -49.841659  11.000163 -38.231610
 -0.000352   0.905637  -0.259247   3.082632   4.224314   6.442342  -6.532731  21.180371  -7.844710  19.704960   0.000000   0.000000 -11.900392  25.063720  -4.423262  16.223780   0.000000   0.000000 -10.262389 -18.761181 -19.312297  31.211980   0.000000   0.000000 -16.237266 -19.178480  31.308894  16.610320   0.000000   0.000000  -8.362633   3.636346  -9.089821   7.883509  -5.441832   7.597420 -34.581944   4.277695  -1.946412   4.756783  23.913101  12.140217 -76.033318 -18.664127 -32.104713  -0.002303 -84.772260  -0.002103 -34.400188 -14.387223  -3.201676  12.523716 -21.787836  -4.770797 -63.205146 -19.447844  38.756299 -179.998433  82.412940 179.998193 -57.701944  13.450174 -31.554479
  0.001721   0.906588  -0.256966   3.048267   3.662779   6.367365  -5.971304  20.790483  -8.128307  18.912660   0.000000   0.000000 -11.952371  25.834229  -3.388143  15.565640   0.000000   0.000000 -10.414055 -17.912714 -19.085641  31.733200   0.000000   0.000000 -16.581984 -21.040218  29.961998  17.086900   0.000000   0.000000  -8.529552   3.812322  -8.991307   7.840676  -5.288699   7.839090 -34.104064   4.806212  -1.716432   4.712739  24.146381  12.094862 -76.473706 -18.445835 -33.625023  -0.003270 -86.328960  -0.003070 -41.521280 -15.559176  -9.489991  12.442283 -21.316756  -4.659462 -63.864708 -18.200246  40.633664 -179.998832  79.786860 179.998592 -64.489083  15.837941 -24.507179
  0.003655   0.907462  -0.255081   3.015013   3.103976   6.272781  -5.516830  20.298713  -8.376402  18.211740   0.000000   0.000000 -11.982808  26.686581  -2.422702  15.039120   0.000000   0.000000 -10.568113 -16.821478 -18.737745  32.301920   0.000000   0.000000 -16.954102 -22.550039  28.665389  17.662620   0.000000   0.000000  -8.698647   4.006589  -8.924973   7.843246  -5.098411   8.140353 -33.546795   5.206404  -1.581992   4.649546  24.310975  12.014901 -76.924916 -18.385413 -35.504328  -0.005380 -87.749800  -0.005180 -48.929806 -16.926678 -15.642289  12.417742 -20.833184  -4.479094 -64.593824 -16.462571  42.636620 -179.999065  77.412660 179.998865 -69.847728  17.975910 -18.220232
  0.005297   0.908287  -0.253444   2.938200   2.542600   6.136900  -5.098100  19.663700  -8.554000  17.565200   0.000000   0.000000 -12.107800  27.596500  -1.418400  15.047100   0.000000   0.000000 -10.675800 -15.658400 -18.232000  32.791100   0.000000   0.000000 -17.316200 -23.625600  27.301700  17.854600   0.000000   0.000000  -8.851500   4.219100  -8.872800   7.909500  -4.864400   8.521800 -32.962792   5.541273  -1.480772   4.678300  24.314800  11.793700 -77.368500 -18.560700 -37.555000  -0.012800 -89.059500  -0.012600 -56.884600 -18.633700 -21.231900  12.320400 -20.200700  -4.422300 -65.319500 -14.549300  44.606600 -179.999200  75.132100 179.999000 -74.230600  19.746100 -12.896000
  0.006784   0.909021  -0.252224   2.822447   1.961118   6.000743  -4.676817  18.879726  -8.735632  16.871920   0.000000   0.000000 -12.213895  28.625803  -0.478468  15.047280   0.000000   0.000000 -10.816668 -14.407021 -17.624299  33.228140   0.000000   0.000000 -17.424784 -24.178481  25.986734  17.894120   0.000000   0.000000  -8.986155   4.437882  -8.847227   8.052613  -4.598423   8.968405 -32.343375   5.839944  -1.531600   4.796428  24.226790  11.434159 -77.800600 -19.010365 -39.849932 -179.890293 -89.890039 -179.890093 -65.388516 -20.956862 -26.681878  12.109217 -19.331626  -4.605533 -66.026147 -12.595458  46.621494 -179.999321  72.898340 179.999101 -77.030913  20.537330  -9.061836
  0.008071   0.909627  -0.251313   2.681069   1.352646   5.871054  -4.335806  18.033135  -8.906470  16.302720   0.000000   0.000000 -12.378841  29.676020   0.656881  15.047200   0.000000   0.000000 -11.017293 -13.038134 -16.909504  33.630780   0.000000   0.000000 -17.088820 -24.333862  24.409660  17.621160   0.000000   0.000000  -9.109377   4.655368  -8.819637   8.245138  -4.330113   9.413612 -31.852404   6.221711  -1.529365   4.976597  24.004789  11.050407 -78.200484 -19.508039 -42.252460 -179.988413 -88.955600 -179.988213 -74.113914 -22.807057 -32.450115  11.719473 -18.229844  -5.053989 -66.606495 -10.688827  48.760299 -179.999401  70.677980 179.999141 -79.251006  20.828267  -6.490080
  0.009335   0.910071  -0.250767   2.555711   0.716530   5.804036  -4.085939  17.006938  -9.155482  15.788940   0.000000   0.000000 -12.689111  30.867645   2.040588  15.047200   0.000000   0.000000 -11.375727 -11.576439 -16.163208  33.995160   0.000000   0.000000 -16.235387 -24.321878  22.665406  17.219820   0.000000   0.000000  -9.217982   4.917926  -8.775190   8.454793  -4.040788   9.744087 -31.336424   6.426898  -1.641607   5.128726  23.704856  10.692269 -78.742963 -19.963505 -44.952218 -179.993587 -88.111280 -179.993387 -82.297740 -23.657722 -37.903762  11.419734 -16.998037  -5.514159 -67.257340  -8.642874  50.904709 -179.999461  68.549480 179.999201 -81.927980  21.361397  -4.452638
  0.010446   0.910324  -0.250537   2.443878   0.081497   5.765824  -3.922024  15.880774  -9.419124  15.338260   0.000000   0.000000 -13.159012  32.089296   3.582505  15.047200   0.000000   0.000000 -11.846028 -10.009543 -15.348383  34.280320   0.000000   0.000000 -15.126758 -24.321666  21.509676  17.355620   0.000000   0.000000  -9.340988   5.191004  -8.741134   8.748060  -3.743237  10.073375 -30.840354   6.567631  -1.845538   5.266624  23.231348  10.288794 -79.377456 -20.268445 -47.661509 -179.995580 -87.251720 -179.995380 -88.622049 -23.446246 -42.093681  11.093113 -15.695913  -6.125143 -67.992878  -6.548995  53.273294 -179.999501  66.606680 179.999281 -83.971946  22.078345  -3.443273
